<svg width="20" height="20" viewBox="0 0 20 20" fill="none" xmlns="http://www.w3.org/2000/svg">
<path d="M9.92758 10.7766C9.94829 10.7766 9.969 10.7766 9.99385 10.7766C10.0021 10.7766 10.0104 10.7766 10.0187 10.7766C10.0311 10.7766 10.0477 10.7766 10.0601 10.7766C11.2736 10.7559 12.2552 10.3293 12.98 9.51336C14.5745 7.71588 14.3094 4.6345 14.2805 4.34044C14.1769 2.13295 13.1332 1.07683 12.2718 0.583972C11.6298 0.215366 10.8802 0.0165666 10.0435 0H10.0146C10.0104 0 10.0021 0 9.99799 0H9.97314C9.51342 0 8.61054 0.0745496 7.74493 0.567405C6.87519 1.06026 5.81493 2.11638 5.71138 4.34044C5.68239 4.6345 5.41733 7.71588 7.01186 9.51336C7.73251 10.3293 8.71408 10.7559 9.92758 10.7766ZM6.81721 4.44398C6.81721 4.43156 6.82135 4.41913 6.82135 4.41085C6.95802 1.44129 9.06612 1.12239 9.969 1.12239H9.98557C9.99385 1.12239 10.0063 1.12239 10.0187 1.12239C11.1369 1.14724 13.038 1.60282 13.1664 4.41085C13.1664 4.42328 13.1664 4.4357 13.1705 4.44398C13.1746 4.47298 13.4646 7.28929 12.1475 8.772C11.6257 9.36012 10.9299 9.65003 10.0146 9.65831C10.0063 9.65831 10.0021 9.65831 9.99385 9.65831C9.98557 9.65831 9.98142 9.65831 9.97314 9.65831C9.06198 9.65003 8.36204 9.36012 7.84433 8.772C6.53143 7.29758 6.81306 4.46883 6.81721 4.44398Z" fill="#C4C4C4"/>
<path d="M18.505 15.8874C18.505 15.8833 18.505 15.8792 18.505 15.875C18.505 15.8419 18.5009 15.8087 18.5009 15.7715C18.476 14.9514 18.4222 13.0338 16.6247 12.4209C16.6123 12.4167 16.5957 12.4126 16.5833 12.4085C14.7154 11.9322 13.1623 10.8553 13.1457 10.8429C12.8931 10.6648 12.5452 10.727 12.3671 10.9796C12.189 11.2322 12.2511 11.5801 12.5038 11.7582C12.5742 11.8079 14.2225 12.9552 16.2851 13.4853C17.2501 13.829 17.3578 14.8603 17.3868 15.8046C17.3868 15.8419 17.3868 15.875 17.3909 15.9081C17.395 16.2809 17.3702 16.8566 17.3039 17.1879C16.633 17.5689 14.003 18.886 10.0022 18.886C6.01794 18.886 3.37143 17.5648 2.69634 17.1838C2.63008 16.8524 2.60109 16.2768 2.60937 15.904C2.60937 15.8709 2.61351 15.8377 2.61351 15.8005C2.6425 14.8562 2.75019 13.8249 3.71519 13.4811C5.77773 12.951 7.4261 11.7996 7.49651 11.7541C7.74915 11.576 7.81128 11.2281 7.63318 10.9754C7.45509 10.7228 7.1072 10.6607 6.85456 10.8388C6.83799 10.8512 5.29316 11.928 3.41699 12.4043C3.40042 12.4085 3.388 12.4126 3.37557 12.4167C1.5781 13.0338 1.52426 14.9514 1.49941 15.7673C1.49941 15.8046 1.49941 15.8377 1.49527 15.8709C1.49527 15.875 1.49527 15.8792 1.49527 15.8833C1.49113 16.0987 1.48698 17.2045 1.70649 17.7595C1.74791 17.8671 1.82246 17.9583 1.92186 18.0204C2.04611 18.1032 5.02395 20.0001 10.0063 20.0001C14.9887 20.0001 17.9666 18.0991 18.0908 18.0204C18.1861 17.9583 18.2648 17.8671 18.3062 17.7595C18.5133 17.2086 18.5091 16.1028 18.505 15.8874Z" fill="#C4C4C4"/>
</svg>
