<svg width="20" height="20" viewBox="0 0 20 20" fill="none" xmlns="http://www.w3.org/2000/svg">
<path d="M15.9259 7.44926V5.37037C15.9259 2.40926 13.2674 0 9.99995 0C6.73255 0 4.07403 2.40926 4.07403 5.37037V7.44926C2.8144 7.6663 1.85181 8.76407 1.85181 10.0852V17.323C1.85181 18.7989 3.05292 20 4.52921 20H15.4707C16.947 20 18.1481 18.7989 18.1481 17.3226V10.0848C18.1481 8.76407 17.1855 7.6663 15.9259 7.44926ZM4.81477 5.37037C4.81477 2.81741 7.1407 0.740741 9.99995 0.740741C12.8592 0.740741 15.1851 2.81741 15.1851 5.37037V7.40741H4.81477V5.37037ZM17.4074 17.3226C17.4074 18.3904 16.5385 19.2593 15.4707 19.2593H4.52921C3.46144 19.2593 2.59255 18.3904 2.59255 17.3226V10.0848C2.59255 9.01704 3.46144 8.14815 4.52921 8.14815H15.4707C16.5385 8.14815 17.4074 9.01704 17.4074 10.0848V17.3226Z" fill="#C4C4C4"/>
<path d="M10 10.3704C9.183 10.3704 8.51855 11.0348 8.51855 11.8518V14.0741C8.51855 14.8911 9.183 15.5555 10 15.5555C10.8171 15.5555 11.4815 14.8911 11.4815 14.0741V11.8518C11.4815 11.0348 10.8171 10.3704 10 10.3704ZM10.7408 14.0741C10.7408 14.4826 10.4086 14.8148 10 14.8148C9.59152 14.8148 9.2593 14.4826 9.2593 14.0741V11.8518C9.2593 11.4433 9.59152 11.1111 10 11.1111C10.4086 11.1111 10.7408 11.4433 10.7408 11.8518V14.0741Z" fill="#C4C4C4"/>
</svg>
