<svg width="33" height="22" viewBox="0 0 33 22" fill="none" xmlns="http://www.w3.org/2000/svg">
<path d="M30.9376 0C29.8002 0 28.8751 0.925165 28.8751 2.06251V11.0001H24.0625C22.9252 11.0001 22 11.9252 22 13.0626C22 14.1999 22.9252 15.1251 24.0625 15.1251H27.5V20.6251H25.4375C25.0575 20.6251 24.75 20.9326 24.75 21.3126C24.75 21.6926 25.0575 22.0002 25.4375 22.0002H30.9376C31.3176 22.0002 31.6251 21.6926 31.6251 21.3126C31.6251 20.9326 31.3176 20.6251 30.9376 20.6251H28.8751V15.1251H30.9376C32.0749 15.1251 33.0001 14.1999 33.0001 13.0626V2.06251C33.0001 0.925229 32.0749 0 30.9376 0ZM31.6251 13.0626C31.6251 13.4419 31.3169 13.7501 30.9376 13.7501H24.0625C23.6832 13.7501 23.375 13.442 23.375 13.0626C23.375 12.6832 23.6831 12.3751 24.0625 12.3751H29.5625C29.9425 12.3751 30.25 12.0676 30.25 11.6875V2.06251C30.25 1.6832 30.5582 1.37499 30.9376 1.37499C31.3169 1.37499 31.6251 1.68314 31.6251 2.06251V13.0626Z" fill="#FF4057"/>
<path d="M8.93757 11.0001H4.12502V2.06251C4.12502 0.925165 3.19986 0 2.06251 0C0.925165 0 0 0.925165 0 2.06251V13.0626C0 14.1999 0.925165 15.1251 2.06251 15.1251H4.12502V20.6251H2.06251C1.68249 20.6251 1.37499 20.9326 1.37499 21.3126C1.37499 21.6926 1.68249 22.0002 2.06251 22.0002H7.56252C7.94253 22.0002 8.25004 21.6926 8.25004 21.3126C8.25004 20.9326 7.94253 20.6251 7.56252 20.6251H5.50001V15.1251H8.9375C10.0748 15.1251 11 14.1999 11 13.0626C11 11.9252 10.0749 11.0001 8.93757 11.0001ZM8.93757 13.7501H2.06251C1.6832 13.7501 1.37499 13.442 1.37499 13.0626V2.06251C1.37499 1.6832 1.68314 1.37499 2.06251 1.37499C2.44188 1.37499 2.75004 1.68314 2.75004 2.06251V11.6875C2.75004 12.0676 3.05754 12.3751 3.43756 12.3751H8.93757C9.31687 12.3751 9.62509 12.6832 9.62509 13.0626C9.62509 13.442 9.31687 13.7501 8.93757 13.7501Z" fill="#FF4057"/>
<path d="M18.3696 10.2105C18.9711 10.5805 19.6533 11.0001 20.9658 11.0001C22.2784 11.0001 22.9605 10.5805 23.5621 10.2105C24.0945 9.88353 24.5148 9.62507 25.4386 9.62507C25.8187 9.62507 26.1262 9.31756 26.1262 8.93755V6.87504C26.1262 5.35838 24.8928 4.125 23.3761 4.125H9.62601C8.10936 4.125 6.87598 5.35832 6.87598 6.87504V8.93755C6.87598 9.31756 7.18348 9.62507 7.5635 9.62507C8.48467 9.62507 8.90362 9.88353 9.43465 10.2105C10.0355 10.5805 10.7163 11.0001 12.0275 11.0001C13.3381 11.0001 14.0195 10.5805 14.6204 10.2105C14.9985 9.97776 15.3271 9.7844 15.8135 9.68959V20.6251H13.0634C12.6834 20.6251 12.3759 20.9326 12.3759 21.3126C12.3759 21.6926 12.6834 22.0001 13.0634 22.0001H19.9385C20.3185 22.0001 20.626 21.6926 20.626 21.3126C20.626 20.9326 20.3185 20.6251 19.9385 20.6251H17.1885V9.69339C17.6673 9.78936 17.9946 9.98027 18.3696 10.2105ZM16.493 8.25002C15.1818 8.25002 14.5003 8.66961 13.8994 9.03957C13.3683 9.36655 12.9487 9.62501 12.0275 9.62501C11.1057 9.62501 10.6868 9.36655 10.1557 9.03957C9.67029 8.74012 9.13185 8.40916 8.25096 8.29301V6.87504C8.25096 6.11706 8.86797 5.50005 9.62595 5.50005H23.376C24.134 5.50005 24.751 6.11706 24.751 6.87504V8.29301C23.8681 8.40851 23.3289 8.74019 22.8422 9.03957C22.3098 9.36655 21.8895 9.62501 20.9656 9.62501C20.0418 9.62501 19.6215 9.36655 19.0891 9.03957C18.4877 8.66968 17.8056 8.25002 16.493 8.25002Z" fill="#FF4057"/>
</svg>
